<svg width="27" height="27" viewBox="0 0 27 27" fill="none" xmlns="http://www.w3.org/2000/svg">
<path fill-rule="evenodd" clip-rule="evenodd" d="M13.5 25C17.8646 25 21.6613 22.5685 23.6095 18.9863L23.3082 19.3634C22.3349 20.5819 20.555 20.7735 19.3447 19.7901C18.1486 18.8182 17.9597 17.0637 18.9216 15.8595L19.3893 15.274C18.0176 13.8492 17.8818 11.5937 19.1494 10.0067L22.0496 6.37589C22.1285 6.2771 22.2244 6.1954 22.3314 6.13369C20.2219 3.60734 17.0487 2 13.5 2C7.14873 2 2 7.14873 2 13.5C2 13.7487 2.00789 13.9955 2.02344 14.2403L8.51885 6.09776C9.62165 4.71531 11.6366 4.48925 13.0183 5.59295C14.5351 6.8045 14.7825 9.01622 13.571 10.533L13.2561 10.9271C14.4751 12.4722 14.5366 14.6994 13.2854 16.3247L7.77882 23.4781C9.46378 24.4463 11.4172 25 13.5 25ZM13.5 27C20.9558 27 27 20.9558 27 13.5C27 6.04416 20.9558 0 13.5 0C6.04416 0 0 6.04416 0 13.5C0 20.9558 6.04416 27 13.5 27ZM22.7979 8.64361L20.7121 11.2549C20.0227 12.1179 20.1635 13.3764 21.0265 14.0658L21.3975 14.3621C21.6047 14.5276 21.7377 14.7687 21.7672 15.0323C21.7967 15.2958 21.7202 15.5603 21.5547 15.7676L20.4842 17.1077C20.2077 17.454 20.262 17.9584 20.6059 18.2379C20.9539 18.5206 21.4657 18.4656 21.7455 18.1152L24.8464 14.2332C24.7927 13.3531 24.4659 12.1556 23.9617 10.9337C23.611 10.0836 23.2014 9.2866 22.7979 8.64361ZM10.0823 7.34497C10.496 6.82641 11.2518 6.74161 11.7701 7.15562C12.4238 7.67779 12.5305 8.63103 12.0083 9.28475L11.1407 10.3709C10.796 10.8024 10.8664 11.4316 11.298 11.7763C12.3172 12.5905 12.4963 14.0711 11.7006 15.1048L6.31857 22.0963C5.92484 21.7166 5.45658 21.1688 4.94005 20.4477C4.20035 19.4151 3.41833 18.1082 2.67676 16.6284L10.0823 7.34497Z" fill="#A395E9"/>
</svg>
