<svg width="92" height="27" viewBox="0 0 92 27" fill="none" xmlns="http://www.w3.org/2000/svg">
<path d="M29.26 10V9.48L33.134 1.29H35.474L39.348 9.48V10H37.242L36.488 8.31H32.107L31.366 10H29.26ZM35.63 6.36L34.304 3.383L32.978 6.36H35.63ZM44.2237 1.29V10H41.8837V1.29H44.2237ZM29.26 23V22.48L33.134 14.29H35.474L39.348 22.48V23H37.242L36.488 21.31H32.107L31.366 23H29.26ZM35.63 19.36L34.304 16.383L32.978 19.36H35.63ZM44.2237 14.29V23H41.8837V14.29H44.2237ZM51.3908 21.18C51.8588 21.18 52.2228 21.1583 52.4828 21.115C52.7514 21.063 52.9508 21.0023 53.0808 20.933C53.2194 20.855 53.3061 20.7727 53.3408 20.686C53.3754 20.5907 53.3928 20.504 53.3928 20.426C53.3928 20.27 53.3538 20.1487 53.2758 20.062C53.2064 19.9667 53.0894 19.893 52.9248 19.841C52.7688 19.789 52.5564 19.7543 52.2878 19.737C52.0278 19.711 51.7114 19.6937 51.3388 19.685C51.1221 19.6763 50.8664 19.6633 50.5718 19.646C50.2771 19.6287 49.9738 19.594 49.6618 19.542C49.3498 19.4813 49.0421 19.399 48.7388 19.295C48.4354 19.1823 48.1624 19.0307 47.9198 18.84C47.6858 18.6407 47.4951 18.3937 47.3478 18.099C47.2004 17.8043 47.1268 17.4447 47.1268 17.02V16.851C47.1268 16.4783 47.1918 16.123 47.3218 15.785C47.4604 15.4383 47.6901 15.135 48.0108 14.875C48.3401 14.615 48.7778 14.4113 49.3238 14.264C49.8784 14.108 50.5674 14.03 51.3908 14.03H51.8588C52.4568 14.03 53.0374 14.069 53.6008 14.147C54.1641 14.2163 54.7144 14.3203 55.2518 14.459V16.604C54.6191 16.4567 53.9908 16.3397 53.3668 16.253C52.7514 16.1663 52.1231 16.123 51.4818 16.123C51.0138 16.123 50.6454 16.149 50.3768 16.201C50.1081 16.2443 49.9044 16.305 49.7658 16.383C49.6358 16.4523 49.5534 16.5303 49.5188 16.617C49.4841 16.695 49.4668 16.773 49.4668 16.851C49.4668 17.007 49.5014 17.1327 49.5708 17.228C49.6488 17.3233 49.7701 17.397 49.9348 17.449C50.0994 17.501 50.3118 17.54 50.5718 17.566C50.8318 17.5833 51.1438 17.5963 51.5078 17.605C51.7158 17.6137 51.9628 17.6267 52.2488 17.644C52.5348 17.6527 52.8338 17.6873 53.1458 17.748C53.4664 17.8 53.7784 17.8823 54.0818 17.995C54.3938 18.1077 54.6711 18.2637 54.9138 18.463C55.1564 18.6537 55.3514 18.9007 55.4988 19.204C55.6548 19.4987 55.7328 19.8583 55.7328 20.283V20.452C55.7328 20.8247 55.6634 21.18 55.5248 21.518C55.3948 21.856 55.1651 22.155 54.8358 22.415C54.5064 22.675 54.0688 22.8787 53.5228 23.026C52.9768 23.182 52.2878 23.26 51.4558 23.26H50.9878C50.3031 23.26 49.6358 23.221 48.9858 23.143C48.3444 23.0737 47.7118 22.974 47.0878 22.844V20.66C47.7898 20.816 48.5134 20.9417 49.2588 21.037C50.0128 21.1323 50.7234 21.18 51.3908 21.18ZM57.9194 23V22.48L61.7934 14.29H64.1334L68.0074 22.48V23H65.9014L65.1474 21.31H60.7664L60.0254 23H57.9194ZM64.2894 19.36L62.9634 16.383L61.6374 19.36H64.2894ZM77.2511 23L75.5091 20.27C75.0411 20.27 74.5905 20.2657 74.1571 20.257C73.7238 20.2483 73.2991 20.2093 72.8831 20.14V23H70.5431V14.29C71.2885 14.2033 72.0685 14.1383 72.8831 14.095C73.7065 14.0517 74.5125 14.03 75.3011 14.03H75.6651C76.3931 14.03 76.9955 14.108 77.4721 14.264C77.9488 14.4113 78.3301 14.615 78.6161 14.875C78.9021 15.135 79.1015 15.4383 79.2141 15.785C79.3268 16.1317 79.3831 16.5 79.3831 16.89V17.41C79.3831 17.956 79.2748 18.4543 79.0581 18.905C78.8415 19.347 78.4558 19.6893 77.9011 19.932L79.5131 22.48V23H77.2511ZM75.3271 16.11C75.0238 16.11 74.6468 16.1187 74.1961 16.136C73.7541 16.1533 73.3165 16.1837 72.8831 16.227V18.073C73.2905 18.125 73.6761 18.1597 74.0401 18.177C74.4041 18.1857 74.6988 18.19 74.9241 18.19C75.4441 18.19 75.8471 18.1683 76.1331 18.125C76.4191 18.073 76.6271 17.9993 76.7571 17.904C76.8958 17.8087 76.9781 17.6873 77.0041 17.54C77.0301 17.3927 77.0431 17.215 77.0431 17.007C77.0431 16.8943 77.0345 16.786 77.0171 16.682C76.9998 16.5693 76.9348 16.4697 76.8221 16.383C76.7181 16.2963 76.5491 16.2313 76.3151 16.188C76.0811 16.136 75.7518 16.11 75.3271 16.11ZM81.5875 23V22.48L85.4615 14.29H87.8015L91.6755 22.48V23H89.5695L88.8155 21.31H84.4345L83.6935 23H81.5875ZM87.9575 19.36L86.6315 16.383L85.3055 19.36H87.9575Z" fill="#42A5F5"/>
<path fill-rule="evenodd" clip-rule="evenodd" d="M13.5 25C17.8646 25 21.6613 22.5685 23.6095 18.9863L23.3082 19.3634C22.3349 20.5819 20.555 20.7735 19.3447 19.7901C18.1486 18.8182 17.9597 17.0637 18.9216 15.8595L19.3893 15.274C18.0176 13.8492 17.8818 11.5937 19.1494 10.0067L22.0496 6.37589C22.1285 6.2771 22.2244 6.1954 22.3314 6.13369C20.2219 3.60734 17.0487 2 13.5 2C7.14873 2 2 7.14873 2 13.5C2 13.7487 2.00789 13.9955 2.02344 14.2403L8.51885 6.09776C9.62165 4.71531 11.6366 4.48925 13.0183 5.59295C14.5351 6.8045 14.7825 9.01622 13.571 10.533L13.2561 10.9271C14.4751 12.4722 14.5366 14.6994 13.2854 16.3247L7.77882 23.4781C9.46378 24.4463 11.4172 25 13.5 25ZM13.5 27C20.9558 27 27 20.9558 27 13.5C27 6.04416 20.9558 0 13.5 0C6.04416 0 0 6.04416 0 13.5C0 20.9558 6.04416 27 13.5 27ZM22.7979 8.64361L20.7121 11.2549C20.0227 12.1179 20.1635 13.3764 21.0265 14.0658L21.3975 14.3621C21.6047 14.5276 21.7377 14.7687 21.7672 15.0323C21.7967 15.2958 21.7202 15.5603 21.5547 15.7676L20.4842 17.1077C20.2077 17.454 20.262 17.9584 20.6059 18.2379C20.9539 18.5206 21.4657 18.4656 21.7455 18.1152L24.8464 14.2332C24.7927 13.3531 24.4659 12.1556 23.9617 10.9337C23.611 10.0836 23.2014 9.2866 22.7979 8.64361ZM10.0823 7.34497C10.496 6.82641 11.2518 6.74161 11.7701 7.15562C12.4238 7.67779 12.5305 8.63103 12.0083 9.28475L11.1407 10.3709C10.796 10.8024 10.8664 11.4316 11.298 11.7763C12.3172 12.5905 12.4963 14.0711 11.7006 15.1048L6.31857 22.0963C5.92484 21.7166 5.45658 21.1688 4.94005 20.4477C4.20035 19.4151 3.41833 18.1082 2.67676 16.6284L10.0823 7.34497Z" fill="#42A5F5"/>
</svg>
